<!-- by TradingView --><svg width="18" height="18" fill="none" xmlns="http://www.w3.org/2000/svg"><path fill="#F7931A" d="M0 0h18v18H0z"/><path d="M11.984 5.861c-.442-1.13-1.556-1.234-2.858-.976l-.46-1.624-.987.287.454 1.567-.786.235-.454-1.584-.976.287.46 1.607-.626.195V5.85l-1.354.384.298 1.05s.723-.223.717-.206c.396-.115.592.08.69.27l.527 1.836.103-.017-.103.029.74 2.576c.018.132 0 .35-.275.43.011.007-.717.207-.717.207l.143 1.229 1.274-.368.706-.195.47 1.63.976-.281-.459-1.613c.263-.07.525-.142.786-.218l.46 1.607.987-.281-.47-1.63c1.623-.568 2.662-1.32 2.364-2.91-.247-1.28-.993-1.67-1.992-1.624.482-.46.689-1.067.367-1.894h-.005zm-.368 3.885c.345 1.223-1.779 1.682-2.444 1.877l-.62-2.163c.665-.196 2.697-.982 3.064.286zm-1.331-2.92c.316 1.113-1.464 1.48-2.02 1.64l-.563-1.962c.557-.155 2.25-.832 2.583.327v-.006z" fill="#fff"/></svg>