<!-- by TradingView --><svg width="18" height="18" fill="none" xmlns="http://www.w3.org/2000/svg"><path fill="#EAB300" d="M0 0h18v18H0z"/><path d="M5.933 5.457l.253.13c.14.072.415.155.602.18.694.125 1.057.208 1.342.338l.29.13.31-.104a2.036 2.036 0 011.752.238c.124.093.244.166.26.166.015 0 .03-.062.03-.145 0-.337.368-.503.539-.239.114.166.083.85-.036.97-.078.072-.078.108 0 .336.041.176.062.394.041.679 0 .233 0 .43.026.43s.078-.093.124-.207a.872.872 0 01.203-.3c.077-.058.134-.182.165-.327a.936.936 0 01.135-.342c.068-.073.099-.192.104-.379 0-.155.046-.326.088-.393.067-.11.088-.197.155-.85.036-.26.031-.29-.155-.55-.197-.28-.342-.404-.4-.352-.02.016-.004.078.022.14.046.078.046.093 0 .073-.042-.01-.104-.094-.156-.182a.629.629 0 00-.249-.259c-.186-.088-.259-.041-.13.094.136.14.094.186-.072.062-.083-.062-.15-.14-.15-.171 0-.125-.306-.322-.497-.322h-.182l.114.104c.062.062.11.12.094.124-.042.042-.29-.108-.327-.191-.046-.14-.27-.296-.446-.296-.217 0-.248.047-.114.156l.114.088-.155-.02a.684.684 0 01-.28-.156c-.186-.166-.658-.213-.658-.068 0 .026.052.052.12.078.103.031.093.042-.058.062-.103.01-.207-.005-.254-.052-.119-.103-.352-.14-.528-.077-.156.057-.192.14-.067.14.041 0 .077.026.077.051 0 .073-.285.114-.404.052a.57.57 0 00-.487.016c-.155.067-.166.192-.01.192.103 0 .098.01-.047.093-.104.067-.243.093-.414.093-.187-.01-.275.016-.363.088-.12.104-.156.337-.036.233.036-.03.082-.036.103-.02.016.026-.057.14-.176.248l-.212.218z" fill="#fff"/><path d="M6.523 6.783c.596.156.923.275.974.353.016.03-.072.077-.186.103-.332.094-.347.099-.347.182 0 .052.046.077.14.077.155 0 .544.156.595.254.021.037-.025.026-.119-.02a.71.71 0 00-.746.046l-.155.125.181.155c.166.14.171.15.088.238-.088.104-.119.27-.041.27.03 0 .067-.026.083-.052.026-.041.067-.031.124.026.073.057.088.13.067.26-.02.134-.01.17.052.17.047 0 .088.042.114.093.026.104.228.208.373.208.052 0 .197-.063.321-.156.27-.17.44-.17.348 0-.031.062-.078.109-.104.109-.031 0-.052.02-.052.052 0 .103.26.046.41-.093l.155-.14-.073-.275c-.036-.14-.103-.29-.155-.316-.052-.031-.083-.026-.083.01 0 .094-.135.052-.27-.088-.129-.14-.186-.321-.093-.321.068 0 .161.124.161.223 0 .046.02.077.052.062.02-.016.135-.016.249 0 .191.036.207.041.259.295.036.14.165.467.29.71.119.244.228.518.228.601 0 .166-.135.342-.264.342-.13 0-.332-.17-.513-.43-.228-.337-.353-.27-.171.093.29.56.787.814 1.077.544.239-.222.213-.632-.088-1.326-.207-.487-.254-.767-.155-.912.052-.062.052-.057.03.016-.046.124.156.119.234 0 .047-.078.083-.099.124-.052.037.026.073.015.12-.031.046-.057.082-.063.155-.016.093.052.12.052.192-.052.078-.114.098-.114.155-.052.104.13.207.11.207-.03 0-.068.032-.125.068-.115.27.006.321-.083.088-.165a.274.274 0 01-.187-.182c-.015-.078-.062-.13-.119-.13-.114 0-.186-.186-.109-.269.031-.03.218-.057.415-.057.446 0 .518-.067.544-.466.01-.166 0-.327-.031-.373-.083-.12-.156 0-.156.243 0 .337-.062.379-.554.368h-.41l-.14.171c-.191.249-.398.363-.507.28a.668.668 0 00-.285-.078h-.218l-.01-.3c-.02-.347-.073-.43-.264-.43-.078 0-.239-.062-.368-.13a3.005 3.005 0 00-1.166-.352c-.762-.12-1.275-.353-1.518-.7-.182-.248-.327-.124-.182.156.182.362.695.611 1.384.689.715.078 1.363.28 1.254.394-.047.036-.145.015-.384-.078a3.234 3.234 0 00-.886-.181c-.84-.083-1.27-.239-1.611-.607-.295-.31-.384-.15-.13.223.275.4.622.59 1.54.83v.004zm3.213.855c.03-.046.28 0 .347.068.026.026.01.052-.041.077-.104.042-.348-.077-.306-.145zM8.18 7.457c.244-.072.296-.072.337 0 .042.067-.114.192-.233.192a.347.347 0 01-.181-.068c-.094-.072-.088-.077.077-.124z" fill="#fff"/><path d="M14.596 7.385c-.052.088-.052.103.01.082.083-.036.384.25.384.363 0 .083-.083.104-.13.02-.025-.04-.057-.03-.103 0-.037.037-.093.053-.124.032-.032-.026-.11-.026-.182-.005l-.124.03.15.14c.207.203.28.57.104.57-.031 0-.042-.03-.026-.051.02-.031-.016-.052-.068-.052-.057 0-.145-.057-.191-.135a.69.69 0 00-.228-.196c-.125-.068-.14-.063-.218.051a.28.28 0 00-.052.197c.02.052.005.083-.036.083-.228 0-.394-.414-.223-.56.068-.051.068-.072.016-.103a.296.296 0 00-.14-.052c-.062 0-.073.083-.062.466a3.938 3.938 0 01-3.457 4.032c-.155.026-.202.062-.29.243a1.182 1.182 0 01-.264.332l-.17.109-.027-.135c-.01-.078-.041-.14-.062-.135a.223.223 0 01-.093.021c-.021 0-.047.041-.047.104 0 .103-.17.3-.254.3-.026 0-.052-.052-.052-.103 0-.114-.03-.125-.186-.037l-.114.068.155.082a.86.86 0 01.197.187c.073.14.031.658-.067.751-.068.073-.078.068-.109-.103-.026-.12-.067-.187-.114-.187-.052 0-.135-.046-.197-.104l-.109-.103-.197.104c-.248.119-.29.17-.414.487-.067.181-.12.259-.207.264-.057.015-.104.052-.104.098 0 .047-.036.068-.062.057-.036-.015-.093-.15-.12-.31l-.04-.301.222-.218.218-.228h-.342c-.28 0-.348.021-.389.104-.036.067-.104.104-.202.104-.135 0-.156.02-.156.134 0 .094-.015.125-.051.083-.073-.072-.15-.414-.114-.508.046-.119.368-.28.642-.32l.26-.037-.29-.13c-.156-.077-.296-.165-.296-.197 0-.036-.052-.041-.15-.025-.14.025-.156.025-.104-.068.067-.119.243-.223.31-.181.027.015.053.005.073-.02.078-.125.3-.053.518.17.12.13.223.233.234.233.01 0 .01-.072 0-.155-.016-.104-.068-.176-.145-.213-.078-.036-.12-.103-.12-.17 0-.12-.103-.187-.243-.14-.062.02-.052-.01.036-.089.083-.067.156-.088.228-.072.08.025.161.046.244.062.09.019.169.07.222.145l.047.083.109.176.078.14.098-.28c.052-.155.073-.28.047-.29a9.219 9.219 0 01-1.021-.518c-.083-.052-.181-.104-.238-.104-.089.005-.089.005 0 .073.046.036.088.083.088.104 0 .046-.197.03-.316-.027-.104-.056-.29-.414-.296-.58 0-.057-.072-.186-.155-.28l-.156-.17.031.155c.026.14.016.176-.041.176-.104 0-.223-.233-.29-.57v-.026a14.372 14.372 0 00-.083-.352c-.01-.078-.042-.104-.088-.093-.176.067-.26-.482-.14-.99.026-.13.031-.249.015-.275-.062-.057.026-.347.192-.689.073-.155.135-.321.12-.363-.027-.124.46-.606.606-.606.13 0 .647.13.694.171.01.02-.016.073-.062.124a.306.306 0 00-.083.187c0 .047-.073.171-.166.285l-.155.197.14.145c.113.124.129.176.103.326-.041.213.042.394.181.394.068 0 .104.031.104.104 0 .155.425.642.596.673a.73.73 0 00.321-.036l.182-.067.057.243c.12.389.355.732.673.985a.67.67 0 00.456.155c.311 0 .461-.114.72-.533.202-.337.55-.71.68-.71.051 0 .066.041.051.17-.042.177.041.306.098.161.016-.041.068-.083.104-.083.078 0 .171-.196.171-.362 0-.135.192-.55.26-.55.025 0 .046.063.046.13 0 .12.01.124.114.093h.02c.052-.015.078-.026.094-.046.036-.031.041-.104.052-.311v-.031c.015-.327.088-.544.18-.544.027 0 .048.046.048.103 0 .088.015.094.088.052.072-.041.088-.114.088-.394 0-.394.052-.539.155-.399.052.068.073.073.125 0 .051-.062.051-.124 0-.31-.052-.229-.026-.57.057-.57a.046.046 0 01.046.04c0 .032.02.053.047.053.026 0 .036-.13.015-.316-.03-.342.005-.596.083-.596.026 0 .062.077.078.176a.56.56 0 00.13.254c.07.082.128.174.17.274.052.114.15.218.239.25.083.046.259.175.404.3l.254.228v-.202c0-.171.026-.218.17-.311.089-.052.167-.083.172-.068l.036.176c.031.125.052.14.26.14.212 0 .341.078.243.15a.44.44 0 00-.104.14zm-8.85-.57c0-.016-.114-.089-.26-.156l-.243-.13-.13.218a3.99 3.99 0 00-.258.606 2.591 2.591 0 01-.26.534l-.113.14-.01-.155a.528.528 0 00-.078-.27c-.104-.135-.322-.155-.363-.01-.026.124-.067.13-.156.041-.051-.041-.062-.03-.062.068 0 .181.094.248.337.248.26 0 .342.094.109.13-.202.041-.415-.036-.503-.181-.088-.14-.13-.125-.223.051-.108.218-.093.337.073.518.14.156.171.166.45.166.343 0 .364.052.068.135-.166.047-.233.047-.394-.036-.259-.135-.388-.321-.388-.58 0-.229-.052-.244-.208-.047a.767.767 0 00-.056.725c.108.244.274.353.58.389.207.03.223.036.098.072a.399.399 0 01-.3-.041c-.197-.093-.233-.078-.156.093.078.187.373.306.638.26.435-.068.596-.26.855-1.021a5.477 5.477 0 01.953-1.773v.006z" fill="#fff"/><path d="M9.4 8.68c0-.104.01-.104.129-.052.165.073.305-.031.222-.166-.041-.083-.026-.103.052-.103.057 0 .125.03.135.072.041.104.186.037.155-.077-.036-.156.078-.11.28.093.197.186.275.445.12.388-.053-.015-.073 0-.073.083 0 .094-.026.104-.124.083-.104-.026-.12-.005-.156.125-.031.176-.155.202-.207.041-.026-.062-.062-.093-.114-.083l-.11.031-.046.01c-.093.032-.259-.274-.259-.445H9.4z" fill="#fff"/></svg>