<!-- by TradingView --><svg width="18" height="18" fill="none" xmlns="http://www.w3.org/2000/svg"><path fill="#F0F3FA" d="M0 0h18v18H0z"/><path d="M11.202 12.02a1.006 1.006 0 00-1.03.422.994.994 0 00-.15.36.979.979 0 00.423 1.028c.11.072.234.122.364.146a.979.979 0 001.034-.418.965.965 0 00.142-.364 1.024 1.024 0 00-.157-.742 1.034 1.034 0 00-.626-.432z" fill="#E6007A"/><path d="M6.187 5.128A4.16 4.16 0 019.037 4a4.143 4.143 0 012.753 1.095 3.748 3.748 0 011.207 2.594c.039.98-.32 1.936-1 2.673a4.109 4.109 0 01-2.66 1.287s-.513.034-.635.051c-.29.042-.559.168-.771.36a1.345 1.345 0 00-.417.713s-.16.741-.177.809a.5.5 0 01-.236.335.557.557 0 01-.42.069.552.552 0 01-.352-.225.496.496 0 01-.07-.398c0-.05 1.266-5.638 1.266-5.638a.526.526 0 01.24-.331.577.577 0 01.415-.073.554.554 0 01.349.228c.08.116.107.259.077.395l-.532 2.288-.089.455a.035.035 0 00.004.047c.006.006.015.01.024.01a.04.04 0 00.026-.006c.101-.025.204-.044.308-.058.284-.034.849-.068.849-.068a3.007 3.007 0 001.559-.54c.453-.32.8-.757.995-1.26.197-.504.235-1.05.11-1.574a2.734 2.734 0 00-.813-1.374 2.965 2.965 0 00-1.471-.73 3.054 3.054 0 00-1.651.152 2.89 2.89 0 00-1.296.985c-.323.44-.503.96-.52 1.497-.016.332.037.665.157.977a.521.521 0 01-.031.402.565.565 0 01-.313.272.605.605 0 01-.425-.035.56.56 0 01-.284-.302A3.763 3.763 0 015 7.836a3.756 3.756 0 011.187-2.708z" fill="#1E1E1E"/></svg>